<?xml version="1.0" encoding="utf-8"?>
<!-- Generator: Adobe Illustrator 23.0.2, SVG Export Plug-In . SVG Version: 6.00 Build 0)  -->
<svg version="1.1" id="Layer_1" xmlns="http://www.w3.org/2000/svg" xmlns:xlink="http://www.w3.org/1999/xlink" x="0px" y="0px"
	 viewBox="0 0 24 24" style="enable-background:new 0 0 24 24;" xml:space="preserve">
<style type="text/css">
	.st0{fill-rule:evenodd;clip-rule:evenodd;}
</style>
<g>
	<path class="st0" d="M9.6,9.2L3.8,3.4C3.2,2.8,4.1,1.9,4.7,2.5l5.8,5.8C11.1,8.9,10.2,9.8,9.6,9.2z M21.9,21.5l-5.8-5.8
		c-0.6-0.6,0.3-1.5,0.9-0.9l5.8,5.8C23.4,21.2,22.5,22.1,21.9,21.5z M11.8,12.6L11.8,12.6H1.6C1.3,12.6,1,12.4,1,12s0.3-0.6,0.6-0.6
		h10.2c0.2-0.6,0.8-1,1.5-1c0.9,0,1.6,0.7,1.6,1.6s-0.7,1.6-1.6,1.6C12.6,13.6,12.1,13.2,11.8,12.6z M13.9,6.8
		c0,0.4-0.3,0.6-0.6,0.6s-0.6-0.3-0.6-0.6V2.9c0-0.4,0.3-0.6,0.6-0.6s0.6,0.3,0.6,0.6V6.8z M13.9,21.1c0,0.4-0.3,0.6-0.6,0.6
		s-0.6-0.3-0.6-0.6v-3.9c0-0.4,0.3-0.6,0.6-0.6s0.6,0.3,0.6,0.6V21.1z M18.5,12.6c-0.4,0-0.6-0.3-0.6-0.6s0.3-0.6,0.6-0.6h3.9
		c0.4,0,0.6,0.3,0.6,0.6s-0.3,0.6-0.6,0.6H18.5z M17,9.2c-0.3,0.3-0.7,0.3-0.9,0c-0.3-0.3-0.3-0.7,0-0.9l5.8-5.8
		c0.3-0.3,0.7-0.3,0.9,0c0.3,0.3,0.3,0.7,0,0.9L17,9.2z M4.7,21.5c-0.3,0.3-0.7,0.3-0.9,0c-0.3-0.3-0.3-0.7,0-0.9l5.8-5.8
		c0.3-0.3,0.7-0.3,0.9,0c0.3,0.3,0.3,0.7,0,0.9L4.7,21.5z"/>
</g>
</svg>
