<?xml version="1.0" encoding="utf-8"?>
<!-- Generator: Adobe Illustrator 22.1.0, SVG Export Plug-In . SVG Version: 6.00 Build 0)  -->
<svg version="1.1" id="Isolation_Mode" xmlns="http://www.w3.org/2000/svg" xmlns:xlink="http://www.w3.org/1999/xlink" x="0px"
	 y="0px" viewBox="0 0 186 45.1" style="enable-background:new 0 0 186 45.1;" xml:space="preserve">
<style type="text/css">
	.st0{fill:#0097DC;}
	.st1{fill:#231F20;}
</style>
<path class="st0" d="M22.8,41.2c-9.6,0-17.5-7.3-18.4-16.6H2.6C3.5,34.9,12.2,43,22.8,43S42.1,34.9,43,24.6h-1.8
	C40.3,33.9,32.4,41.2,22.8,41.2"/>
<path d="M22.8,4.2c10.2,0,18.5,8.3,18.5,18.5h1.8c0-11.2-9.1-20.3-20.3-20.3S2.5,11.5,2.5,22.7h1.8C4.3,12.4,12.6,4.2,22.8,4.2"/>
<path class="st0" d="M17.3,34.8c0.2,0.3,0.4,0.4,0.7,0.4l0,0c0.3,0,0.6-0.2,0.7-0.5l4-8v0.1l3.9,7.9c0.1,0.3,0.4,0.5,0.7,0.5l0,0
	c0.3,0,0.6-0.2,0.7-0.4l6-10.2h-2l-4.4,8v-0.1l-4-8c-0.1-0.3-0.4-0.5-0.8-0.5c-0.3,0-0.6,0.2-0.8,0.5l-4,8.1l0,0l-4.4-8h-2
	L17.3,34.8z"/>
<polygon points="13.5,13.7 11.7,13.7 11.7,22.7 13.5,22.7 13.5,19 32.1,19 32.1,22.7 33.9,22.7 33.9,13.7 32.1,13.7 32.1,17.2 
	13.5,17.2 "/>
<g>
	<polygon points="51,12.1 53.3,12.1 53.3,16.3 57.6,16.3 57.6,12.1 59.9,12.1 59.9,22.7 57.6,22.7 57.6,18.4 53.3,18.4 53.3,22.7 
		51,22.7 	"/>
	<polygon points="65.6,12.1 73.5,12.1 73.5,14.2 67.9,14.2 67.9,16.3 72.9,16.3 72.9,18.4 67.9,18.4 67.9,20.6 73.6,20.6 73.6,22.7 
		65.6,22.7 	"/>
	<polygon points="78.6,12.1 80.9,12.1 80.9,20.6 86.2,20.6 86.2,22.7 78.6,22.7 	"/>
	<polygon points="90.5,12.1 92.8,12.1 92.8,20.6 98,20.6 98,22.7 90.5,22.7 	"/>
	<g>
		<path d="M106.3,20.7c0.5,0,0.9-0.1,1.3-0.3c0.4-0.2,0.7-0.4,1-0.7c0.3-0.3,0.5-0.7,0.6-1c0.2-0.4,0.2-0.8,0.2-1.3l0,0
			c0-0.5-0.1-0.9-0.2-1.3c-0.2-0.4-0.4-0.8-0.7-1.1c-0.3-0.3-0.6-0.5-1-0.7s-0.8-0.3-1.3-0.3s-0.9,0.1-1.3,0.3s-0.7,0.4-1,0.7
			s-0.5,0.6-0.6,1c-0.2,0.4-0.2,0.8-0.2,1.3l0,0c0,0.5,0.1,0.9,0.2,1.3c0.2,0.4,0.4,0.8,0.7,1.1c0.3,0.3,0.6,0.5,1,0.7
			C105.4,20.6,105.8,20.7,106.3,20.7 M106.3,22.9c-0.8,0-1.6-0.1-2.2-0.4c-0.7-0.3-1.3-0.7-1.8-1.2s-0.9-1.1-1.2-1.7
			c-0.3-0.7-0.4-1.4-0.4-2.1l0,0c0-0.8,0.1-1.5,0.4-2.1c0.3-0.7,0.7-1.2,1.2-1.7s1.1-0.9,1.8-1.2c0.7-0.3,1.4-0.4,2.3-0.4
			c0.8,0,1.6,0.1,2.2,0.4c0.7,0.3,1.3,0.7,1.8,1.2s0.9,1.1,1.2,1.7c0.3,0.7,0.4,1.4,0.4,2.1l0,0c0,0.8-0.1,1.5-0.4,2.1
			c-0.3,0.7-0.7,1.2-1.2,1.7s-1.1,0.9-1.8,1.2C107.8,22.7,107.1,22.9,106.3,22.9"/>
	</g>
	<polygon points="115.9,12.1 117.2,12.1 120.3,20.9 123.2,12.1 124.1,12.1 127,20.9 130,12.1 131.3,12.1 127.5,22.8 126.5,22.8 
		123.6,14.2 120.7,22.8 119.7,22.8 	"/>
	<g>
		<path d="M143.6,17.4L143.6,17.4c0-2.4-1.7-4.4-4.2-4.4c-2.4,0-4.1,1.9-4.1,4.3l0,0c0,2.4,1.7,4.4,4.2,4.4
			C141.9,21.8,143.6,19.8,143.6,17.4 M134.1,17.4L134.1,17.4c0-2.9,2.2-5.5,5.4-5.5s5.4,2.5,5.4,5.4l0,0c0,2.9-2.2,5.5-5.4,5.5
			C136.3,22.9,134.1,20.3,134.1,17.4"/>
		<path d="M153.5,17.5c1.6,0,2.7-0.8,2.7-2.2l0,0c0-1.3-1-2.1-2.7-2.1h-3.3v4.3H153.5z M149,12.1h4.5c1.3,0,2.3,0.4,3,1.1
			c0.5,0.5,0.8,1.3,0.8,2.1l0,0c0,1.7-1.2,2.8-2.9,3.1l3.2,4.3h-1.5l-3.1-4.1l0,0h-3v4.1h-1V12.1z"/>
	</g>
	<polygon points="162.5,12.1 163.7,12.1 163.7,21.6 169.6,21.6 169.6,22.7 162.5,22.7 	"/>
	<g>
		<path d="M178.1,21.6c2.7,0,4.4-1.8,4.4-4.1l0,0c0-2.3-1.7-4.2-4.4-4.2h-2.5v8.4h2.5V21.6z M174.4,12.1h3.7c3.3,0,5.6,2.3,5.6,5.2
			l0,0c0,3-2.3,5.3-5.6,5.3h-3.7V12.1z"/>
	</g>
	<g>
		<path class="st1" d="M53.6,27.5h0.7l3.1,6.8h-0.8l-0.8-1.8h-3.7l-0.8,1.8h-0.8L53.6,27.5z M55.5,31.8l-1.5-3.4l-1.5,3.4H55.5z"/>
		<path class="st1" d="M62.1,27.5h0.8l2.4,3.7l2.4-3.7h0.8v6.7h-0.8v-5.4l-2.4,3.6h0l-2.4-3.6v5.4h-0.7V27.5z"/>
		<path class="st1" d="M70.4,31.8L70.4,31.8c0-1.4,1-2.6,2.4-2.6c1.5,0,2.3,1.2,2.3,2.6c0,0.1,0,0.2,0,0.2h-3.9
			c0.1,1.1,0.9,1.7,1.7,1.7c0.7,0,1.2-0.3,1.6-0.7l0.5,0.4c-0.5,0.6-1.1,0.9-2,0.9C71.5,34.3,70.4,33.3,70.4,31.8z M74.4,31.5
			c-0.1-0.9-0.6-1.7-1.6-1.7c-0.9,0-1.5,0.7-1.6,1.7H74.4z"/>
		<path class="st1" d="M76.9,29.3h0.7v1.3c0.4-0.8,1.1-1.4,2-1.4V30h-0.1c-1.1,0-2,0.8-2,2.3v2h-0.7V29.3z"/>
		<path class="st1" d="M81.2,27.2h0.7v4.8l2.7-2.8h0.9l-2.1,2.1l2.2,2.8h-0.9l-1.8-2.3l-1,1v1.3h-0.7V27.2z"/>
		<path class="st1" d="M87.2,27.2h0.7v7h-0.7V27.2z"/>
		<path class="st1" d="M89.7,31.8L89.7,31.8c0-1.4,1-2.6,2.4-2.6c1.5,0,2.3,1.2,2.3,2.6c0,0.1,0,0.2,0,0.2h-3.9
			c0.1,1.1,0.9,1.7,1.7,1.7c0.7,0,1.2-0.3,1.6-0.7l0.5,0.4c-0.5,0.6-1.1,0.9-2,0.9C90.9,34.3,89.7,33.3,89.7,31.8z M93.7,31.5
			c-0.1-0.9-0.6-1.7-1.6-1.7c-0.9,0-1.5,0.7-1.6,1.7H93.7z"/>
		<path class="st1" d="M98.9,30.9L98.9,30.9c0-1.9,1.4-3.5,3.4-3.5c1.2,0,1.9,0.4,2.6,1.1l-0.5,0.6c-0.6-0.5-1.2-0.9-2.1-0.9
			c-1.5,0-2.6,1.2-2.6,2.8v0c0,1.6,1.1,2.8,2.6,2.8c0.9,0,1.5-0.4,2.2-1l0.5,0.5c-0.7,0.7-1.5,1.2-2.7,1.2
			C100.4,34.3,98.9,32.8,98.9,30.9z"/>
		<path class="st1" d="M106.2,31.8L106.2,31.8c0-1.4,1.1-2.6,2.6-2.6c1.5,0,2.6,1.2,2.6,2.6v0c0,1.4-1.1,2.6-2.6,2.6
			C107.3,34.3,106.2,33.2,106.2,31.8z M110.6,31.8L110.6,31.8c0-1.1-0.8-2-1.8-2c-1.1,0-1.8,0.9-1.8,1.9v0c0,1.1,0.8,1.9,1.8,1.9
			C109.8,33.7,110.6,32.8,110.6,31.8z"/>
		<path class="st1" d="M112.9,29.3h0.7v0.8c0.3-0.5,0.8-0.9,1.6-0.9c0.8,0,1.3,0.4,1.6,1c0.4-0.5,0.9-1,1.7-1c1.1,0,1.8,0.8,1.8,2
			v3.1h-0.7v-2.9c0-1-0.5-1.5-1.3-1.5c-0.7,0-1.4,0.6-1.4,1.5v2.9h-0.7v-2.9c0-0.9-0.5-1.5-1.3-1.5c-0.8,0-1.4,0.7-1.4,1.6v2.8h-0.7
			V29.3z"/>
		<path class="st1" d="M122.5,29.3h0.7v1c0.4-0.6,1-1.1,1.9-1.1c1.2,0,2.4,0.9,2.4,2.6v0c0,1.6-1.2,2.6-2.4,2.6
			c-0.9,0-1.5-0.5-1.9-1.1v2.5h-0.7V29.3z M126.7,31.8L126.7,31.8c0-1.2-0.8-1.9-1.7-1.9c-0.9,0-1.8,0.8-1.8,1.9v0
			c0,1.2,0.9,1.9,1.8,1.9C125.9,33.7,126.7,33,126.7,31.8z"/>
		<path class="st1" d="M128.9,32.8L128.9,32.8c0-1.1,0.9-1.6,2.1-1.6c0.6,0,1.1,0.1,1.5,0.2v-0.2c0-0.9-0.5-1.4-1.5-1.4
			c-0.6,0-1,0.2-1.5,0.4l-0.2-0.6c0.5-0.2,1.1-0.4,1.8-0.4c0.7,0,1.2,0.2,1.6,0.5c0.3,0.3,0.5,0.8,0.5,1.5v3h-0.7v-0.7
			c-0.3,0.5-0.9,0.9-1.8,0.9C129.9,34.3,128.9,33.8,128.9,32.8z M132.6,32.4v-0.5c-0.4-0.1-0.9-0.2-1.5-0.2c-0.9,0-1.5,0.4-1.5,1v0
			c0,0.6,0.6,1,1.2,1C131.8,33.7,132.6,33.2,132.6,32.4z"/>
		<path class="st1" d="M135.3,29.3h0.7v0.9c0.3-0.5,0.8-1,1.7-1c1.2,0,1.9,0.8,1.9,2v3.1h-0.7v-2.9c0-0.9-0.5-1.5-1.4-1.5
			c-0.9,0-1.5,0.6-1.5,1.6v2.8h-0.7V29.3z"/>
		<path class="st1" d="M145.2,29.3h0.8l-2.1,5.1c-0.4,1-0.9,1.4-1.7,1.4c-0.4,0-0.7-0.1-1.1-0.2l0.2-0.6c0.2,0.1,0.5,0.2,0.8,0.2
			c0.4,0,0.7-0.2,1-0.9l-2.3-4.9h0.8l1.8,4.1L145.2,29.3z"/>
	</g>
</g>
</svg>
