<?xml version="1.0" encoding="utf-8"?>
<!-- Generator: Adobe Illustrator 24.0.1, SVG Export Plug-In . SVG Version: 6.00 Build 0)  -->
<svg version="1.1" id="Layer_1" xmlns="http://www.w3.org/2000/svg" xmlns:xlink="http://www.w3.org/1999/xlink" x="0px" y="0px"
	 viewBox="0 0 169.5 26" style="enable-background:new 0 0 169.5 26;" xml:space="preserve">
<style type="text/css">
	.st0{fill:#00AEE4;}
</style>
<title>Artboard 1</title>
<path class="st0" d="M14.5,0c2.2,0,4,1.9,4,4.1c0,2.2-1.9,4-4.1,3.9s-4-1.9-3.9-4.1C10.5,1.7,12.3,0,14.5,0"/>
<path class="st0" d="M13.3,10.4c0.4,0.1,0.8,0.1,1.2,0.1c0.4,0,0.8,0,1.2-0.1v0.8c-0.4,0.2-0.8,0.3-1.2,0.2c-0.4,0-0.8-0.1-1.2-0.2
	V10.4z"/>
<path class="st0" d="M11.7,9.9v1.5c0,1,1.1,1.6,2.8,1.6s2.8-0.6,2.8-1.6V9.9c1.3-0.7,2.4-1.7,3-3.1l7.5,4.4l-13,7.7L12.8,20
	L1.2,13.2l8.4-4.9C10.2,9,10.9,9.5,11.7,9.9"/>
<polygon class="st0" points="0,15.2 11.6,22 11.6,26 0,19.2 "/>
<polygon class="st0" points="29,17.2 14,26 14,22 15.9,20.9 29,13.3 "/>
<path class="st0" d="M41.7,18.7c-0.3-0.2-0.5-0.6-0.5-0.9c0-0.6,0.5-1.2,1.1-1.2c0,0,0,0,0,0c0.3,0,0.5,0.1,0.7,0.2
	c0.8,0.6,1.8,1,2.9,1c1,0,1.6-0.4,1.6-1.1l0,0c0-0.6-0.4-1-2.3-1.4c-2.3-0.6-3.7-1.2-3.7-3.5l0,0c0-2.1,1.6-3.4,4-3.4
	c1.3,0,2.5,0.3,3.6,1c0.6,0.3,0.7,1.1,0.4,1.6c-0.3,0.6-1.1,0.7-1.6,0.4c-0.7-0.5-1.5-0.7-2.4-0.8c-1,0-1.5,0.4-1.5,1l0,0
	c0,0.8,0.5,1,2.4,1.5c2.3,0.6,3.6,1.4,3.6,3.4l0,0c0,2.3-1.7,3.5-4.1,3.5C44.4,20,43,19.6,41.7,18.7"/>
<path class="st0" d="M56.4,9.7c0-0.7,0.5-1.2,1.2-1.2c0,0,0,0,0,0h0.3c0.5,0,1,0.3,1.3,0.7l4.8,6.3V9.6c-0.1-0.7,0.4-1.3,1.1-1.3
	c0.7-0.1,1.3,0.4,1.3,1.1c0,0.1,0,0.1,0,0.2v9c0,0.7-0.5,1.2-1.2,1.2c0,0,0,0,0,0h-0.1c-0.5,0-1-0.3-1.3-0.7l-5-6.6v6.1
	c0.1,0.7-0.4,1.3-1.1,1.3s-1.3-0.4-1.3-1.1c0-0.1,0-0.1,0-0.2L56.4,9.7z"/>
<path class="st0" d="M72.7,14.2L72.7,14.2c0-3.3,2.7-6,6-6s6,2.7,6,6l0,0c0,3.3-2.7,6-6,6S72.7,17.5,72.7,14.2 M82.1,14.2L82.1,14.2
	c0.1-1.9-1.4-3.5-3.3-3.6c0,0-0.1,0-0.1,0c-1.9,0-3.4,1.5-3.4,3.4c0,0,0,0.1,0,0.1l0,0c-0.1,1.9,1.4,3.5,3.3,3.6c0,0,0.1,0,0.1,0
	c1.9,0,3.4-1.5,3.4-3.4C82.1,14.3,82.1,14.2,82.1,14.2"/>
<path class="st0" d="M89.9,10.1c-0.1-0.2-0.1-0.3-0.1-0.5c0-0.7,0.7-1.2,1.4-1.2c0.5,0,1,0.4,1.1,0.9l2.2,7l2.3-6.9
	c0.1-0.6,0.7-1,1.3-1h0.2c0.6,0,1.1,0.4,1.3,1l2.3,6.9l2.2-7c0.2-0.5,0.6-0.9,1.2-0.9c0.7,0,1.2,0.5,1.2,1.2c0,0,0,0,0,0
	c0,0.2,0,0.3-0.1,0.5l-3.2,8.9c-0.2,0.6-0.7,1-1.3,1h-0.3c-0.6,0-1.1-0.4-1.3-1l-2.2-6.5L95.9,19c-0.2,0.6-0.7,1-1.3,1h-0.3
	c-0.6,0-1.1-0.4-1.3-1L89.9,10.1z"/>
<path class="st0" d="M112,18.7c-0.3-0.2-0.5-0.6-0.5-0.9c0-0.6,0.5-1.2,1.1-1.2c0,0,0,0,0,0c0.3,0,0.5,0.1,0.7,0.2
	c0.8,0.6,1.8,1,2.9,1c1,0,1.6-0.4,1.6-1.1l0,0c0-0.6-0.4-1-2.3-1.4c-2.3-0.6-3.7-1.2-3.7-3.5l0,0c0-2.1,1.6-3.4,4-3.4
	c1.3,0,2.5,0.3,3.6,1c0.5,0.3,0.7,1.1,0.4,1.6c-0.2,0.3-0.6,0.5-1,0.5c-0.2,0-0.4-0.1-0.6-0.2c-0.7-0.5-1.5-0.7-2.4-0.8
	c-1,0-1.5,0.4-1.5,1l0,0c0,0.8,0.5,1,2.4,1.5c2.3,0.6,3.6,1.4,3.6,3.4l0,0c0,2.3-1.7,3.5-4.1,3.5C114.8,20,113.3,19.6,112,18.7"/>
<path class="st0" d="M126.7,9.6c0-0.7,0.6-1.2,1.2-1.2c0.7,0,1.2,0.6,1.2,1.2V13h4.6V9.6c-0.1-0.7,0.4-1.3,1.1-1.4
	c0.7-0.1,1.3,0.4,1.4,1.1c0,0.1,0,0.1,0,0.2v9.1c0.1,0.7-0.4,1.3-1.1,1.4c-0.7,0.1-1.3-0.4-1.4-1.1c0-0.1,0-0.1,0-0.2v-3.4h-4.6v3.4
	c0,0.7-0.6,1.2-1.2,1.2c-0.7,0-1.2-0.6-1.2-1.2l0,0V9.6z"/>
<path class="st0" d="M142.5,14.2L142.5,14.2c0-3.3,2.7-6,6-6s6,2.7,6,6l0,0c0,3.3-2.7,6-6,6S142.5,17.5,142.5,14.2 M151.9,14.2
	L151.9,14.2c0.1-1.9-1.4-3.5-3.3-3.6c0,0-0.1,0-0.1,0c-1.9,0-3.4,1.5-3.4,3.4c0,0,0,0.1,0,0.1l0,0c-0.1,1.9,1.4,3.5,3.3,3.6
	c0,0,0.1,0,0.1,0c1.9,0,3.4-1.5,3.4-3.4C151.9,14.3,151.9,14.3,151.9,14.2"/>
<path class="st0" d="M160.9,18.6V9.7c0-0.7,0.5-1.2,1.2-1.2c0,0,0,0,0,0h6.3c0.6,0,1.1,0.5,1.1,1.1c0,0.6-0.5,1.1-1.1,1.1l0,0h-5V13
	h4.3c0.6,0,1.1,0.5,1.1,1.1c0,0.6-0.5,1.1-1.1,1.1c0,0,0,0,0,0h-4.3v2.4h5.1c0.6,0,1.1,0.5,1.1,1.1c0,0.6-0.5,1.1-1.1,1.1
	c0,0,0,0,0,0h-6.3C161.4,19.8,160.9,19.3,160.9,18.6C160.9,18.6,160.9,18.6,160.9,18.6"/>
</svg>
