<?xml version="1.0" encoding="utf-8"?>
<!-- Generator: Adobe Illustrator 23.0.4, SVG Export Plug-In . SVG Version: 6.00 Build 0)  -->
<svg version="1.1" id="Layer_1" xmlns="http://www.w3.org/2000/svg" xmlns:xlink="http://www.w3.org/1999/xlink" x="0px" y="0px"
	 viewBox="0 0 24 24" style="enable-background:new 0 0 24 24;" xml:space="preserve">
<style type="text/css">
	.st0{fill:none;}
	.st1{fill:#FFFFFF;}
</style>
<path class="st0" d="M0,0h24v24H0V0z"/>
<path class="st1" d="M11,12c2.2,0,4-1.8,4-4s-1.8-4-4-4S7,5.8,7,8S8.8,12,11,12z M11,6c1.1,0,2,0.9,2,2s-0.9,2-2,2S9,9.1,9,8
	S9.9,6,11,6z M5,18c0.2-0.6,2.6-1.7,5-1.9l2-2c-0.4,0-0.7-0.1-1-0.1c-2.7,0-8,1.3-8,4v2h9l-2-2H5z M20.6,12.5l-5.1,5.2l-2.1-2.1
	L12,17l3.5,3.5l6.5-6.6L20.6,12.5z"/>
</svg>
