<?xml version="1.0" encoding="utf-8"?>
<!-- Generator: Adobe Illustrator 23.1.1, SVG Export Plug-In . SVG Version: 6.00 Build 0)  -->
<svg version="1.1" id="Layer_1" xmlns="http://www.w3.org/2000/svg" xmlns:xlink="http://www.w3.org/1999/xlink" x="0px" y="0px"
	 viewBox="0 0 24 24" style="enable-background:new 0 0 24 24;" xml:space="preserve">
<style type="text/css">
	.st0{fill:none;}
	.st1{opacity:0.3;fill-rule:evenodd;clip-rule:evenodd;enable-background:new    ;}
	.st2{fill-rule:evenodd;clip-rule:evenodd;}
</style>
<title>Icon For Select</title>
<g>
	<polygon class="st0" points="0,0 24,0 24,24 0,24 	"/>
	<path class="st1" d="M18.5,8C17.1,8,16,6.9,16,5.5S17.1,3,18.5,3S21,4.1,21,5.5S19.9,8,18.5,8z M18.5,21c-1.4,0-2.5-1.1-2.5-2.5
		s1.1-2.5,2.5-2.5s2.5,1.1,2.5,2.5S19.9,21,18.5,21z M5.5,21C4.1,21,3,19.9,3,18.5S4.1,16,5.5,16S8,17.1,8,18.5S6.9,21,5.5,21z"/>
	<path class="st2" d="M5.5,8C4.1,8,3,6.9,3,5.5S4.1,3,5.5,3S8,4.1,8,5.5S6.9,8,5.5,8z M11,4h2c0.6,0,1,0.4,1,1s-0.4,1-1,1h-2
		c-0.6,0-1-0.4-1-1S10.4,4,11,4z M11,18h2c0.6,0,1,0.4,1,1s-0.4,1-1,1h-2c-0.6,0-1-0.4-1-1S10.4,18,11,18z M5,10c0.6,0,1,0.4,1,1v2
		c0,0.6-0.4,1-1,1s-1-0.4-1-1v-2C4,10.4,4.4,10,5,10z M19,10c0.6,0,1,0.4,1,1v2c0,0.6-0.4,1-1,1s-1-0.4-1-1v-2
		C18,10.4,18.4,10,19,10z"/>
</g>
<circle class="st2" cx="12" cy="12" r="2.5"/>
</svg>
