<?xml version="1.0" encoding="utf-8"?>
<!-- Generator: Adobe Illustrator 23.1.1, SVG Export Plug-In . SVG Version: 6.00 Build 0)  -->
<svg version="1.1" id="Layer_1" xmlns="http://www.w3.org/2000/svg" xmlns:xlink="http://www.w3.org/1999/xlink" x="0px" y="0px"
	 viewBox="0 0 64 64" style="enable-background:new 0 0 64 64;" xml:space="preserve">
<style type="text/css">
	.st0{fill:#FFFFFF;}
</style>
<g>
	<g>
		<rect x="36.8" y="20.4" class="st0" width="11.6" height="5.8"/>
	</g>
	<g>
		<rect x="36.8" y="57.2" class="st0" width="11.6" height="5.8"/>
	</g>
	<g>
		<rect x="21.3" y="57.2" class="st0" width="11.6" height="5.8"/>
	</g>
	<g>
		<rect x="58.2" y="35.9" class="st0" width="5.8" height="11.6"/>
	</g>
	<g>
		<polygon class="st0" points="64,32 58.2,32 58.2,26.2 52.4,26.2 52.4,20.4 64,20.4 		"/>
	</g>
	<g>
		<polygon class="st0" points="64,63 52.4,63 52.4,57.2 58.2,57.2 58.2,51.4 64,51.4 		"/>
	</g>
	<g>
		<polygon class="st0" points="17.5,63 5.8,63 5.8,51.4 11.6,51.4 11.6,57.2 17.5,57.2 		"/>
	</g>
	<g>
		<rect x="24" y="7.5" transform="matrix(0.6354 -0.7721 0.7721 0.6354 -10.7432 30.4816)" class="st0" width="5.8" height="38.3"/>
	</g>
	<g>
		
			<rect x="7.8" y="17.1" transform="matrix(0.7699 -0.6382 0.6382 0.7699 -6.5449 21.8013)" class="st0" width="38.3" height="5.8"/>
	</g>
	<g>
		<path class="st0" d="M8.7,45.6c-4.8,0-8.7-3.9-8.7-8.7c0-4.8,3.9-8.7,8.7-8.7s8.7,3.9,8.7,8.7C17.5,41.7,13.5,45.6,8.7,45.6z
			 M8.7,33.9c-1.6,0-2.9,1.3-2.9,2.9c0,1.6,1.3,2.9,2.9,2.9s2.9-1.3,2.9-2.9C11.6,35.2,10.3,33.9,8.7,33.9z"/>
	</g>
	<g>
		<path class="st0" d="M8.7,18.4C3.9,18.4,0,14.5,0,9.7S3.9,1,8.7,1s8.7,3.9,8.7,8.7S13.5,18.4,8.7,18.4z M8.7,6.8
			c-1.6,0-2.9,1.3-2.9,2.9s1.3,2.9,2.9,2.9s2.9-1.3,2.9-2.9S10.3,6.8,8.7,6.8z"/>
	</g>
</g>
</svg>
