<svg xmlns="http://www.w3.org/2000/svg" viewBox="0 0 233.94 35.88"><defs><style>.cls-1{fill:#fff;}</style></defs><title>Asset 1</title><g id="Layer_2" data-name="Layer 2"><g id="Layer_1-2" data-name="Layer 1"><path class="cls-1" d="M20,0a5.64,5.64,0,1,1-5.59,5.64A5.62,5.62,0,0,1,20,0"/><path class="cls-1" d="M18.31,14.4a9.18,9.18,0,0,0,1.67.16,9.07,9.07,0,0,0,1.66-.16v1a3.72,3.72,0,0,1-1.66.32,3.73,3.73,0,0,1-1.67-.32Z"/><path class="cls-1" d="M16.15,13.68v2c0,1.33,1.54,2.23,3.83,2.23S23.8,17,23.8,15.7v-2A9,9,0,0,0,28,9.41l10.32,6L20.26,26l-2.59,1.51-16-9.34,11.64-6.79a9.1,9.1,0,0,0,2.89,2.26"/><polygon class="cls-1" points="0 21.05 16.05 30.41 16.05 35.88 0 26.51 0 21.05"/><polygon class="cls-1" points="39.98 23.73 19.29 35.87 19.29 30.4 21.9 28.87 39.98 18.32 39.98 23.73"/><path class="cls-1" d="M57.5,25.74a1.6,1.6,0,0,1,1-2.88,1.63,1.63,0,0,1,1,.31,6.56,6.56,0,0,0,4,1.41c1.41,0,2.25-.56,2.25-1.48v0c0-.88-.53-1.33-3.14-2-3.14-.8-5.16-1.68-5.16-4.79v-.05c0-2.84,2.27-4.73,5.45-4.73a9,9,0,0,1,4.94,1.39,1.6,1.6,0,0,1-.84,3,1.61,1.61,0,0,1-.87-.25,6.47,6.47,0,0,0-3.27-1.05c-1.32,0-2,.61-2,1.37v0c0,1,.67,1.37,3.36,2.06,3.17.83,5,2,5,4.71v0c0,3.12-2.36,4.87-5.72,4.87a10,10,0,0,1-5.86-1.89"/><path class="cls-1" d="M77.79,13.35a1.71,1.71,0,0,1,1.72-1.72h.35a2.09,2.09,0,0,1,1.78,1l6.61,8.74V13.29a1.7,1.7,0,1,1,3.39,0V25.77a1.71,1.71,0,0,1-1.72,1.72h-.11a2.12,2.12,0,0,1-1.78-1l-6.85-9v8.4a1.7,1.7,0,1,1-3.39,0Z"/><path class="cls-1" d="M100.34,19.61v-.05a8.28,8.28,0,0,1,16.55,0v0a8.28,8.28,0,0,1-16.55.05m13,0v-.05a4.75,4.75,0,0,0-4.72-4.93,4.68,4.68,0,0,0-4.67,4.89v0a4.75,4.75,0,0,0,4.72,4.93,4.67,4.67,0,0,0,4.67-4.88"/><path class="cls-1" d="M124.05,13.91a2.1,2.1,0,0,1-.14-.64,1.71,1.71,0,0,1,1.76-1.69,1.73,1.73,0,0,1,1.67,1.24l3.09,9.61,3.12-9.52a1.81,1.81,0,0,1,1.74-1.37h.26a1.79,1.79,0,0,1,1.74,1.37l3.11,9.52,3.1-9.61a1.72,1.72,0,0,1,1.64-1.24,1.66,1.66,0,0,1,1.7,1.66,2.29,2.29,0,0,1-.14.67l-4.36,12.33a1.91,1.91,0,0,1-1.78,1.41h-.36a1.87,1.87,0,0,1-1.76-1.41l-3.07-9-3.07,9a1.85,1.85,0,0,1-1.76,1.41h-.35a1.91,1.91,0,0,1-1.78-1.41Z"/><path class="cls-1" d="M154.5,25.74a1.6,1.6,0,0,1,1-2.88,1.63,1.63,0,0,1,1,.31,6.56,6.56,0,0,0,4,1.41c1.4,0,2.25-.56,2.25-1.48v0c0-.88-.53-1.33-3.14-2-3.14-.8-5.16-1.68-5.16-4.79v-.05c0-2.84,2.27-4.73,5.45-4.73a9,9,0,0,1,4.94,1.39,1.6,1.6,0,1,1-1.71,2.71,6.47,6.47,0,0,0-3.27-1.05c-1.32,0-2,.61-2,1.37v0c0,1,.67,1.37,3.36,2.06,3.16.83,4.94,2,4.94,4.71v0c0,3.12-2.35,4.87-5.71,4.87a10,10,0,0,1-5.86-1.89"/><path class="cls-1" d="M174.79,13.31a1.72,1.72,0,1,1,3.43,0v4.62h6.32V13.31a1.72,1.72,0,1,1,3.43,0v12.5a1.72,1.72,0,1,1-3.43,0v-4.7h-6.32v4.7a1.72,1.72,0,1,1-3.43,0Z"/><path class="cls-1" d="M196.67,19.61v-.05a8.28,8.28,0,0,1,16.56,0v0a8.28,8.28,0,0,1-16.56.05m13,0v-.05a4.75,4.75,0,0,0-4.72-4.93,4.68,4.68,0,0,0-4.67,4.89v0A4.75,4.75,0,0,0,205,24.49a4.67,4.67,0,0,0,4.67-4.88"/><path class="cls-1" d="M221.94,25.68V13.44a1.71,1.71,0,0,1,1.71-1.72h8.64a1.54,1.54,0,0,1,1.53,1.55,1.52,1.52,0,0,1-1.53,1.52h-6.95V18h5.95a1.54,1.54,0,0,1,1.53,1.55A1.52,1.52,0,0,1,231.29,21h-5.95v3.29h7.06a1.55,1.55,0,0,1,1.54,1.55,1.52,1.52,0,0,1-1.54,1.52h-8.75a1.71,1.71,0,0,1-1.71-1.72"/></g></g></svg>