<?xml version="1.0" encoding="utf-8"?>
<!-- Generator: Adobe Illustrator 23.0.0, SVG Export Plug-In . SVG Version: 6.00 Build 0)  -->
<svg version="1.1" id="Layer_1" xmlns="http://www.w3.org/2000/svg" xmlns:xlink="http://www.w3.org/1999/xlink" x="0px" y="0px"
	 viewBox="0 0 240 240" style="enable-background:new 0 0 240 240;" xml:space="preserve">
<style type="text/css">
	.st0{opacity:0.32;}
	.st1{fill:#FFFFFF;}
</style>
<g>
	<g class="st0">
		<path class="st1" d="M208,240H32c-17.6,0-32-14.4-32-32V32C0,14.4,14.4,0,32,0h176c17.6,0,32,14.4,32,32v176
			C240,225.6,225.6,240,208,240z"/>
	</g>
	<g>
		<path class="st1" d="M208,16c8.8,0,16,7.2,16,16v176c0,8.8-7.2,16-16,16H32c-8.8,0-16-7.2-16-16V32c0-8.8,7.2-16,16-16H208 M208,0
			H32C14.4,0,0,14.4,0,32v176c0,17.6,14.4,32,32,32h176c17.6,0,32-14.4,32-32V32C240,14.4,225.6,0,208,0L208,0z"/>
	</g>
</g>
<path class="st1" d="M148,180H92c-17.6,0-32-14.4-32-32V92c0-17.6,14.4-32,32-32h56c17.6,0,32,14.4,32,32v56
	C180,165.6,165.6,180,148,180z"/>
</svg>
