<?xml version="1.0" encoding="utf-8"?>
<!-- Generator: Adobe Illustrator 23.0.0, SVG Export Plug-In . SVG Version: 6.00 Build 0)  -->
<svg version="1.1" id="Layer_1" xmlns="http://www.w3.org/2000/svg" xmlns:xlink="http://www.w3.org/1999/xlink" x="0px" y="0px"
	 viewBox="0 0 240 240" style="enable-background:new 0 0 240 240;" xml:space="preserve">
<style type="text/css">
	.st0{opacity:0.32;fill:#FFFFFF;enable-background:new    ;}
	.st1{fill:#FFFFFF;}
</style>
<g>
	<path class="st0" d="M120,24c-52.9,0-96,43.1-96,96s43.1,96,96,96s96-43.1,96-96S172.9,24,120,24z M96,180l-48-48l16.9-16.9L96,146
		L175.1,67L192,84L96,180z"/>
	<path class="st1" d="M120,0C53.8,0,0,53.8,0,120s53.8,120,120,120s120-53.8,120-120S186.2,0,120,0z M120,216c-52.9,0-96-43.1-96-96
		s43.1-96,96-96s96,43.1,96,96S172.9,216,120,216z M175.1,67L96,146l-31.1-31L48,132l48,48l96-96L175.1,67z"/>
</g>
</svg>
