<?xml version="1.0" encoding="utf-8"?>
<!-- Generator: Adobe Illustrator 23.0.2, SVG Export Plug-In . SVG Version: 6.00 Build 0)  -->
<svg version="1.1" id="Layer_1" xmlns="http://www.w3.org/2000/svg" xmlns:xlink="http://www.w3.org/1999/xlink" x="0px" y="0px"
	 viewBox="0 0 24 24" style="enable-background:new 0 0 24 24;" xml:space="preserve">
<style type="text/css">
	.st0{fill:#FFFFFF;}
</style>
<g>
	<path class="st0" d="M16.9,15.7v3.7H7.1v-3.7c-2,0-4.1,0-6.1,0c0,2.4,0,4.9,0,7.3c7.3,0,14.7,0,22,0c0-2.4,0-4.9,0-7.3
		C21,15.7,18.9,15.7,16.9,15.7z"/>
	<path class="st0" d="M17.5,11.2c-0.4-0.2-0.8-0.4-1.2-0.6c-0.1,0.9-0.3,1.8-0.4,2.6c0.2,0,0.3,0.1,0.5,0.1
		C16.7,12.7,17.1,12,17.5,11.2z"/>
	<path class="st0" d="M17.5,14.8c0.9-0.5,1.8-0.9,2.8-1.4c-0.3-0.5-0.6-1.1-0.9-1.6c-0.8,0.8-1.7,1.7-2.5,2.5
		C17,14.4,17.3,14.6,17.5,14.8z"/>
	<path class="st0" d="M7.5,13.8C6.8,12.9,6,12,5.3,11.2c-0.3,0.5-0.7,1-1,1.5c1,0.5,2,1.1,2.9,1.6C7.3,14.2,7.4,14,7.5,13.8z"/>
	<path class="st0" d="M8.6,13c0-0.6,0-1.2,0-1.8c-0.3,0.1-0.6,0.2-0.9,0.3c0.2,0.5,0.4,1,0.6,1.6C8.3,13,8.4,13,8.6,13z"/>
	<path class="st0" d="M14.4,17.1c-0.3,0.3-0.7,0.7-1,1h1V17.1z"/>
	<path class="st0" d="M14.4,15v-2.1c-1.6,1.6-3.2,3.2-4.8,4.8v0.4h1.8C12.4,17.1,13.4,16.1,14.4,15z"/>
	<path class="st0" d="M14.4,1H9.6v10.3c1.6-1.6,3.2-3.2,4.8-4.8C14.4,6.5,14.4,1,14.4,1z"/>
	<path class="st0" d="M14.4,8.5c-1.6,1.6-3.2,3.2-4.8,4.8v2.4c1.6-1.6,3.2-3.2,4.8-4.8V8.5L14.4,8.5z"/>
</g>
</svg>
