<?xml version="1.0" encoding="utf-8"?>
<!-- Generator: Adobe Illustrator 23.0.0, SVG Export Plug-In . SVG Version: 6.00 Build 0)  -->
<svg version="1.1" id="Layer_1" xmlns="http://www.w3.org/2000/svg" xmlns:xlink="http://www.w3.org/1999/xlink" x="0px" y="0px"
	 viewBox="0 0 240 240" style="enable-background:new 0 0 240 240;" xml:space="preserve">
<style type="text/css">
	.st0{fill:#FFFFFF;}
	.st1{opacity:0.32;fill:#FFFFFF;}
</style>
<g>
	<path class="st0" d="M224.3,20.9h-49l-8.9-17.7c-1-2.1-2.6-3.1-4.7-3.1H78.3c-2.1,0-3.7,1-4.7,3.1l-8.9,17.7h-49
		c-3.1,0-5.2,2.1-5.2,5.2v31.3c0,3.1,2.1,5.2,5.2,5.2h16.2l4.7,41.7H26.1c-1.6,0-3.1,0.5-4.2,1.6s-1,3.1-1,4.2l10.4,73
		c0.5,2.6,2.6,4.7,5.2,4.7h9.9l5.7,47.5c0.5,2.6,2.6,4.7,5.2,4.7h125.2c2.6,0,4.7-2.1,5.2-4.7l5.7-47.5h9.9c2.6,0,4.7-2.1,5.2-4.7
		l10.4-73c0-1.6,0-3.1-1-4.2c-1-1-2.6-1.6-4.2-1.6h-11l4.7-41.7h16.7c3.1,0,5.2-2.1,5.2-5.2V26.1C229.6,23,227.5,20.9,224.3,20.9z
		 M177.9,229.6H62.1l-4.7-41.7h125.7L177.9,229.6z M192.5,104.3h-145l-4.7-41.7h155.5L192.5,104.3z"/>
	<path class="st1" d="M177.9,229.6H62.1l-4.7-41.7h125.7L177.9,229.6z M192.5,104.3h-145l-4.7-41.7h155.5L192.5,104.3z"/>
</g>
</svg>
