<?xml version="1.0" encoding="utf-8"?>
<!-- Generator: Adobe Illustrator 23.0.2, SVG Export Plug-In . SVG Version: 6.00 Build 0)  -->
<svg version="1.1" id="Layer_1" xmlns="http://www.w3.org/2000/svg" xmlns:xlink="http://www.w3.org/1999/xlink" x="0px" y="0px"
	 viewBox="0 0 417.3 64" style="enable-background:new 0 0 417.3 64;" xml:space="preserve">
<style type="text/css">
	.st0{fill:#FFFFFF;}
</style>
<g>
	<g>
		<path class="st0" d="M35.6,0c5.5,0,10,4.5,10,10.1c0,5.5-4.5,10.1-10,10.1s-10-4.5-10-10.1C25.7,4.5,30.1,0,35.6,0"/>
		<path class="st0" d="M32.7,25.7c1,0.2,2,0.3,3,0.3c1,0,2-0.1,3-0.3v1.8c-0.4,0.2-1.4,0.6-3,0.6c-1.5,0-2.5-0.3-3-0.6V25.7z"/>
		<path class="st0" d="M28.8,24.4V28c0,2.4,2.7,4,6.8,4c4.1,0,6.8-1.6,6.8-4v-3.6c3.3-1.6,5.9-4.3,7.4-7.6l18.4,10.7L36.1,46.5
			l-4.6,2.7L2.9,32.5l20.8-12.1C25.1,22,26.8,23.4,28.8,24.4"/>
		<polygon class="st0" points="0,37.5 28.6,54.2 28.6,64 0,47.3 		"/>
		<polygon class="st0" points="71.3,42.3 34.4,64 34.4,54.2 39.1,51.5 71.3,32.7 		"/>
	</g>
	<path class="st0" d="M102.6,45.9c-0.7-0.5-1.2-1.4-1.2-2.3c0-1.6,1.3-2.8,2.9-2.8c0.8,0,1.4,0.3,1.7,0.6c2.1,1.6,4.4,2.5,7.1,2.5
		c2.5,0,4-1,4-2.6v-0.1c0-1.6-1-2.4-5.6-3.6c-5.6-1.4-9.2-3-9.2-8.6v-0.1c0-5.1,4-8.4,9.7-8.4c3.4,0,6.3,0.9,8.8,2.5
		c0.7,0.4,1.4,1.2,1.4,2.4c0,1.6-1.3,2.8-2.9,2.8c-0.6,0-1.1-0.2-1.5-0.4c-2-1.2-3.9-1.9-5.8-1.9c-2.3,0-3.6,1.1-3.6,2.4v0.1
		c0,1.8,1.2,2.4,6,3.7c5.6,1.5,8.8,3.5,8.8,8.4v0.1c0,5.6-4.2,8.7-10.2,8.7C109.4,49.3,105.7,48.2,102.6,45.9"/>
	<path class="st0" d="M138.8,23.8c0-1.7,1.4-3.1,3.1-3.1h0.6c1.5,0,2.3,0.7,3.2,1.8l11.8,15.6V23.7c0-1.7,1.4-3,3-3c1.7,0,3,1.4,3,3
		V46c0,1.7-1.4,3.1-3.1,3.1h-0.2c-1.5,0-2.3-0.7-3.2-1.8l-12.2-16.1v15c0,1.7-1.4,3-3,3c-1.7,0-3-1.4-3-3V23.8z"/>
	<path class="st0" d="M179,35L179,35c0-8,6.2-14.5,14.8-14.5c8.6,0,14.7,6.4,14.7,14.4v0.1c0,8-6.2,14.5-14.8,14.5
		C185.2,49.4,179,42.9,179,35 M202.1,35L202.1,35c0-4.9-3.5-8.9-8.4-8.9c-4.9,0-8.3,3.9-8.3,8.7v0.1c0,4.8,3.5,8.8,8.4,8.8
		C198.7,43.7,202.1,39.8,202.1,35"/>
	<path class="st0" d="M221.3,24.8c-0.1-0.4-0.2-0.8-0.2-1.2c0-1.7,1.4-3,3.1-3c1.4,0,2.6,0.9,3,2.2l5.5,17.1l5.6-17
		c0.5-1.4,1.6-2.4,3.1-2.4h0.5c1.5,0,2.6,1,3.1,2.4l5.6,17l5.5-17.1c0.4-1.2,1.4-2.2,2.9-2.2c1.7,0,3,1.3,3,3c0,0.4-0.1,0.8-0.2,1.2
		l-7.8,22c-0.6,1.6-1.7,2.5-3.2,2.5h-0.6c-1.5,0-2.6-0.9-3.1-2.5l-5.5-16l-5.5,16c-0.6,1.6-1.7,2.5-3.1,2.5h-0.6
		c-1.5,0-2.6-1-3.2-2.5L221.3,24.8z"/>
	<path class="st0" d="M275.6,45.9c-0.7-0.5-1.2-1.4-1.2-2.3c0-1.6,1.3-2.8,2.9-2.8c0.8,0,1.4,0.3,1.7,0.6c2.1,1.6,4.4,2.5,7.1,2.5
		c2.5,0,4-1,4-2.6v-0.1c0-1.6-1-2.4-5.6-3.6c-5.6-1.4-9.2-3-9.2-8.6v-0.1c0-5.1,4-8.4,9.7-8.4c3.4,0,6.3,0.9,8.8,2.5
		c0.7,0.4,1.3,1.2,1.3,2.4c0,1.6-1.3,2.8-2.9,2.8c-0.6,0-1.1-0.2-1.5-0.4c-2-1.2-3.9-1.9-5.8-1.9c-2.3,0-3.6,1.1-3.6,2.4v0.1
		c0,1.8,1.2,2.4,6,3.7c5.6,1.5,8.8,3.5,8.8,8.4v0.1c0,5.6-4.2,8.7-10.2,8.7C282.4,49.3,278.7,48.2,275.6,45.9"/>
	<path class="st0" d="M311.8,23.7c0-1.7,1.3-3.1,3.1-3.1c1.7,0,3.1,1.4,3.1,3.1V32h11.3v-8.2c0-1.7,1.3-3.1,3.1-3.1
		c1.7,0,3.1,1.4,3.1,3.1V46c0,1.7-1.4,3.1-3.1,3.1c-1.7,0-3.1-1.4-3.1-3.1v-8.4h-11.3V46c0,1.7-1.4,3.1-3.1,3.1
		c-1.7,0-3.1-1.4-3.1-3.1V23.7z"/>
	<path class="st0" d="M350.8,35L350.8,35c0-8,6.2-14.5,14.8-14.5c8.6,0,14.7,6.4,14.7,14.4v0.1c0,8-6.2,14.5-14.8,14.5
		C357,49.4,350.8,42.9,350.8,35 M374,35L374,35c0-4.9-3.5-8.9-8.4-8.9c-4.9,0-8.3,3.9-8.3,8.7v0.1c0,4.8,3.5,8.8,8.4,8.8
		C370.6,43.7,374,39.8,374,35"/>
	<path class="st0" d="M395.9,45.8V24c0-1.7,1.4-3.1,3.1-3.1h15.4c1.5,0,2.7,1.2,2.7,2.8c0,1.5-1.2,2.7-2.7,2.7H402v5.7h10.6
		c1.5,0,2.7,1.2,2.7,2.8c0,1.5-1.2,2.7-2.7,2.7H402v5.9h12.6c1.5,0,2.7,1.2,2.7,2.8c0,1.5-1.2,2.7-2.7,2.7H399
		C397.3,48.9,395.9,47.5,395.9,45.8"/>
</g>
</svg>
