<?xml version="1.0" encoding="utf-8"?>
<!-- Generator: Adobe Illustrator 23.0.2, SVG Export Plug-In . SVG Version: 6.00 Build 0)  -->
<svg version="1.1" id="Layer_1" xmlns="http://www.w3.org/2000/svg" xmlns:xlink="http://www.w3.org/1999/xlink" x="0px" y="0px"
	 viewBox="0 0 24 24" style="enable-background:new 0 0 24 24;" xml:space="preserve">
<style type="text/css">
	.st0{fill:none;}
	.st1{fill:#FFFFFF;}
</style>
<path class="st0" d="M0,0h24v24H0V0z"/>
<path class="st1" d="M17.6,6.3C16,4.7,13.7,3.8,11.2,4c-3.7,0.4-6.7,3.3-7.1,7C3.5,15.9,7.3,20,12,20c3.2,0,5.9-1.9,7.2-4.6
	c0.3-0.7-0.2-1.4-0.9-1.4c-0.4,0-0.7,0.2-0.9,0.5c-1.1,2.4-3.8,4-6.8,3.3c-2.2-0.5-4-2.3-4.5-4.5C5.3,9.4,8.3,6,12,6
	c1.7,0,3.1,0.7,4.2,1.8l-1.5,1.5c-0.6,0.6-0.2,1.7,0.7,1.7H19c0.5,0,1-0.4,1-1V6.4c0-0.9-1.1-1.3-1.7-0.7
	C18.3,5.7,17.7,6.3,17.6,6.3z"/>
</svg>
