<?xml version="1.0" encoding="utf-8"?>
<!-- Generator: Adobe Illustrator 23.0.2, SVG Export Plug-In . SVG Version: 6.00 Build 0)  -->
<svg version="1.1" id="Layer_1" xmlns="http://www.w3.org/2000/svg" xmlns:xlink="http://www.w3.org/1999/xlink" x="0px" y="0px"
	 viewBox="0 0 24 24" style="enable-background:new 0 0 24 24;" xml:space="preserve">
<style type="text/css">
	.st0{fill:none;}
	.st1{fill:#FFFFFF;}
</style>
<path class="st0" d="M0,0h24v24H0V0z"/>
<path class="st1" d="M12,9h4c0.5,0,1-0.4,1-1s-0.5-1-1-1h-4c-0.6,0-1,0.4-1,1S11.4,9,12,9z M12,13h4c0.5,0,1-0.4,1-1s-0.5-1-1-1h-4
	c-0.6,0-1,0.4-1,1S11.4,13,12,13z M12,17h4c0.5,0,1-0.5,1-1s-0.5-1-1-1h-4c-0.6,0-1,0.4-1,1C11,16.5,11.4,17,12,17z M7,7h2v2H7V7z
	 M7,11h2v2H7V11z M7,15h2v2H7V15z M20,3H4C3.5,3,3,3.5,3,4v16c0,0.5,0.5,1,1,1h16c0.5,0,1-0.5,1-1V4C21,3.5,20.5,3,20,3z M19,19H5V5
	h14V19z"/>
</svg>
