<?xml version="1.0" encoding="utf-8"?>
<!-- Generator: Adobe Illustrator 23.0.0, SVG Export Plug-In . SVG Version: 6.00 Build 0)  -->
<svg version="1.1" id="Layer_1" xmlns="http://www.w3.org/2000/svg" xmlns:xlink="http://www.w3.org/1999/xlink" x="0px" y="0px"
	 viewBox="0 0 120 120" style="enable-background:new 0 0 120 120;" xml:space="preserve">
<style type="text/css">
	.st0{opacity:0.32;}
	.st1{opacity:0.32;fill:#FFFFFF;enable-background:new    ;}
	.st2{fill:#FFFFFF;}
</style>
<g class="st0">
	<path class="st1" d="M60,83.4L37.4,97l6-25.7L23.5,54.1l26.3-2.3L60,27.6l10.3,24.2l26.3,2.3l-20,17.3l6,25.7L60,83.4z"/>
	<path class="st2" d="M120,46.4l-43.1-3.7L60,3L43.1,42.8L0,46.4l32.8,28.4L22.9,117L60,94.6L97.1,117l-9.8-42.2L120,46.4z M60,83.4
		L37.4,97l6-25.7L23.5,54.1l26.3-2.3L60,27.6l10.3,24.2l26.3,2.3l-20,17.3l6,25.7L60,83.4z"/>
</g>
</svg>
