<?xml version="1.0" encoding="utf-8"?>
<!-- Generator: Adobe Illustrator 23.0.2, SVG Export Plug-In . SVG Version: 6.00 Build 0)  -->
<svg version="1.1" id="Layer_1" xmlns="http://www.w3.org/2000/svg" xmlns:xlink="http://www.w3.org/1999/xlink" x="0px" y="0px"
	 viewBox="0 0 24 24" style="enable-background:new 0 0 24 24;" xml:space="preserve">
<style type="text/css">
	.st0{fill:none;}
	.st1{fill:#FFFFFF;}
</style>
<path class="st0" d="M0,0h24v24H0V0z M0,0h24v24H0V0z"/>
<path class="st1" d="M10.9,21.9l5.5-5.5C16.8,16,17,15.5,17,15V5c0-1.1-0.9-2-2-2H6C5.2,3,4.5,3.5,4.2,4.2l-3.3,7.6
	c-0.9,2,0.6,4.2,2.8,4.2h5.7l-0.9,4.6c-0.1,0.5,0.1,1,0.4,1.4C9.4,22.5,10.3,22.5,10.9,21.9z M21,3c-1.1,0-2,0.9-2,2v8
	c0,1.1,0.9,2,2,2s2-0.9,2-2V5C23,3.9,22.1,3,21,3z"/>
</svg>
