<?xml version="1.0" encoding="utf-8"?>
<!-- Generator: Adobe Illustrator 23.0.2, SVG Export Plug-In . SVG Version: 6.00 Build 0)  -->
<svg version="1.1" id="Layer_1" xmlns="http://www.w3.org/2000/svg" xmlns:xlink="http://www.w3.org/1999/xlink" x="0px" y="0px"
	 viewBox="0 0 24 24" style="enable-background:new 0 0 24 24;" xml:space="preserve">
<style type="text/css">
	.st0{fill:#F44336;}
</style>
<path class="st0" d="M22.9,12.2l-2.7-5c-0.2-0.3-0.6-0.6-1-0.6H4.8c-0.4,0-0.8,0.2-1,0.6l-2.7,5C1,12.4,1,12.7,1,12.9l0.8,3.6
	c0.1,0.5,0.5,0.9,1.1,0.9h18.2c0.5,0,1-0.3,1.1-0.9l0.8-3.6C23,12.7,23,12.4,22.9,12.2z M15.9,12.5l-1.2,2.1H9.3l-1.2-2.1H2.6
	l2.3-4.3h14.2l2.3,4.3H15.9z"/>
</svg>
